<?xml version="1.0" standalone="no"?><!DOCTYPE svg PUBLIC "-//W3C//DTD SVG 1.1//EN" "http://www.w3.org/Graphics/SVG/1.1/DTD/svg11.dtd"><svg t="1632581061642" class="icon" viewBox="0 0 1024 1024" version="1.1" xmlns="http://www.w3.org/2000/svg" p-id="2721" xmlns:xlink="http://www.w3.org/1999/xlink" width="256" height="256"><defs><style type="text/css"></style></defs><path d="M256 426.666667v-128c0-141.397333 114.602667-256 256-256 141.418667 0 256 114.56 256 256a42.666667 42.666667 0 1 1-85.333333 0c0-94.314667-76.373333-170.666667-170.666667-170.666667a170.666667 170.666667 0 0 0-170.666667 170.666667v128h426.666667a106.666667 106.666667 0 0 1 106.666667 106.688V874.666667A106.730667 106.730667 0 0 1 768 981.333333H256a106.666667 106.666667 0 0 1-106.666667-106.688V533.333333A106.730667 106.730667 0 0 1 256 426.666667z m-21.333333 106.688V874.666667A21.333333 21.333333 0 0 0 256 896h512c11.733333 0 21.333333-9.6 21.333333-21.354667V533.333333A21.333333 21.333333 0 0 0 768 512H256c-11.733333 0-21.333333 9.6-21.333333 21.354667z" fill="#8a8a8a" p-id="2722"></path></svg>